<?xml version="1.0" encoding="UTF-8" standalone="no"?><!DOCTYPE svg PUBLIC "-//W3C//DTD SVG 1.1//EN" "http://www.w3.org/Graphics/SVG/1.1/DTD/svg11.dtd"><svg width="100%" height="100%" viewBox="0 0 48 48" version="1.1" xmlns="http://www.w3.org/2000/svg" xmlns:xlink="http://www.w3.org/1999/xlink" xml:space="preserve" style="fill-rule:evenodd;clip-rule:evenodd;stroke-linejoin:round;stroke-miterlimit:1.41421;"><circle cx="24" cy="24" r="20" style="fill:#ede7f6;"/><clipPath id="_clip1"><circle cx="24" cy="24" r="20"/></clipPath><g clip-path="url(#_clip1)"><g><rect x="19.833" y="29" width="8.333" height="12.5" style="fill:#ff9800;"/><path d="M28.125,33.275l-4.125,0.825l-4.125,-0.825c0,0 -9.075,1.638 -9.075,10.725l26.4,0c0,-9.054 -9.075,-10.725 -9.075,-10.725" style="fill:#fff;fill-rule:nonzero;"/><path d="M23.175,36.575l-0.825,7.425l3.3,0l-0.825,-7.425l0.825,-0.825l-1.65,-1.65l-1.65,1.65l0.825,0.825Z" style="fill:#006ad4;fill-rule:nonzero;"/><path d="M33.075,24.375c0,0.912 -0.739,1.65 -1.65,1.65c-0.912,0 -1.65,-0.738 -1.65,-1.65c0,-0.912 0.738,-1.65 1.65,-1.65c0.911,0 1.65,0.738 1.65,1.65m-14.85,0c0,-0.912 -0.739,-1.65 -1.65,-1.65c-0.912,0 -1.65,0.738 -1.65,1.65c0,0.912 0.738,1.65 1.65,1.65c0.911,0 1.65,-0.738 1.65,-1.65" style="fill:#ffa726;fill-rule:nonzero;"/><path d="M31.425,19.425c0,-6.299 -14.85,-4.101 -14.85,0l0,5.775c0,4.101 3.323,7.425 7.425,7.425c4.101,0 7.425,-3.324 7.425,-7.425l0,-5.775Z" style="fill:#ffb74d;fill-rule:nonzero;"/><path d="M26.5,24.833c0,-0.459 0.373,-0.833 0.833,-0.833c0.46,0 0.834,0.374 0.834,0.833c0,0.459 -0.374,0.834 -0.834,0.834c-0.46,0 -0.833,-0.375 -0.833,-0.834m-6.667,0c0,0.459 0.374,0.834 0.834,0.834c0.46,0 0.833,-0.375 0.833,-0.834c0,-0.459 -0.373,-0.833 -0.833,-0.833c-0.46,0 -0.834,0.374 -0.834,0.833" style="fill:#784719;fill-rule:nonzero;"/><path d="M24,12c-5.012,0 -8.25,4.064 -8.25,9.075l0,1.885l1.65,1.415l0,-4.125l9.9,-3.3l3.3,3.3l0,4.125l1.65,-1.437l0,-1.863c0,-3.321 -0.856,-6.613 -4.95,-7.425l-0.825,-1.65l-2.475,0Z" style="fill:#424242;fill-rule:nonzero;"/><path d="M37.333,44l-26.666,0c0,-9.178 9.166,-10.833 9.166,-10.833l0,0.833l4.167,6.667l4.167,-6.667l0,-0.833c0,0 9.166,1.687 9.166,10.833Z" style="fill:#00acc1;fill-rule:nonzero;"/><path d="M28.167,44l-1.667,0l0,-1.667l1.667,0l0,1.667Zm5,-1.667l-1.667,0l0,1.667l1.667,0l0,-1.667Zm-15,-0.833c0.46,0 0.833,-0.373 0.833,-0.833c0,-0.461 -0.373,-0.834 -0.833,-0.834c-0.461,0 -0.834,0.373 -0.834,0.834c0,0.46 0.373,0.833 0.834,0.833Z" style="fill:#cfd8dc;fill-rule:nonzero;"/><circle cx="18.167" cy="40.667" r="2.5" style="fill:#263238;"/><g><path d="M30.653,38.27c-0.105,-3.056 -0.83,-5.27 -0.875,-5.402c-0.324,-0.846 -0.675,-1.583 -1.047,-2.228c-0.183,0.149 -0.368,0.297 -0.564,0.428l0,2.255c0.014,0.035 0.029,0.072 0.042,0.107c0.008,0.022 0.672,2.052 0.776,4.846c-1.94,0.516 -2.485,2.786 -2.485,4.057l1.667,0.003c0,-0.103 0.035,-2.503 1.666,-2.503c1.632,0 1.666,2.4 1.667,2.5l1.667,0c0,-1.278 -0.551,-3.561 -2.514,-4.063Z" style="fill:#37474f;fill-rule:nonzero;"/><path d="M19.833,31.069c-0.121,-0.081 -0.233,-0.177 -0.35,-0.266c-0.702,0.919 -1.161,1.763 -1.274,2.1c-0.43,1.292 -0.876,2.629 -0.876,6.097c0,0.46 0.374,0.833 0.834,0.833c0.46,0 0.833,-0.373 0.833,-0.833c0,-3.198 0.384,-4.35 0.791,-5.57c0.009,-0.027 0.027,-0.067 0.042,-0.103l0,-2.258Z" style="fill:#37474f;fill-rule:nonzero;"/></g></g></g></svg>