<svg version="1.1" xmlns="http://www.w3.org/2000/svg" xmlns:xlink="http://www.w3.org/1999/xlink" x="0px" y="0px" viewBox="0 0 48 48" style="enable-background:new 0 0 48 48;" xml:space="preserve">
<circle style="fill:#EDE7F6;" cx="24" cy="24" r="20"></circle>
<path style="fill:#4E342E;" d="M24,44c4.669,0,8.955-1.613,12.358-4.295C34.647,35.388,31.153,31,24,31s-10.647,4.388-12.358,8.705
	C15.045,42.387,19.33,44,24,44z"></path>
<g>
	<path style="fill:#8D6E63;" d="M15,11l5,5l-7,5c0,0-1-1.516-1-4C12,13.257,15,11,15,11z"></path>
	<path style="fill:#8D6E63;" d="M33,11l-5,5l7,5c0,0,1-1.516,1-4C36,13.257,33,11,33,11z"></path>
	<path style="fill:#8D6E63;" d="M24,14C9.921,14,10,31,10,31s3.948,6,14,6s14-6,14-6S38.079,14,24,14z"></path>
</g>
<g>
	<path style="fill:#EF9A9A;" d="M35.284,20.457C35.58,19.812,36,18.616,36,17c0-3.743-3-6-3-6l-1.486,5.202
		C33.148,17.352,34.37,18.852,35.284,20.457z"></path>
	<path style="fill:#EF9A9A;" d="M16.486,16.202L15,11c0,0-3,2.257-3,6c0,1.616,0.42,2.812,0.716,3.457
		C13.63,18.852,14.852,17.352,16.486,16.202z"></path>
</g>
<path style="fill:#5D4037;" d="M24,31c0,0-0.156,3-3,3c0,0,0.789,1,3,1c2.242,0,3-1,3-1C24.031,34,24,31,24,31z"></path>
<polygon style="fill:#263238;" points="24,32 22,30 22,29 26,29 26,30 "></polygon>
<path style="fill:#FFEB3B;" d="M33,22c0,0,0.596,6-3.54,6C27.551,28,26,28,26,28s-0.231-6,4-6C31.911,22,33,22,33,22z"></path>
<path style="fill:#FFEB3B;" d="M22.002,28c0,0,0.596-6-3.54-6c-1.909,0-3.46,0-3.46,0s-0.231,6,4,6C20.913,28,22.002,28,22.002,28z"></path>
<path style="fill:#212121;" d="M31,25c0,1.657-1.5,3-1.5,3S28,26.657,28,25s1.5-3,1.5-3S31,23.343,31,25z"></path>
<path style="fill:#212121;" d="M20.002,25c0-1.657-1.5-3-1.5-3s-1.5,1.343-1.5,3s1.5,3,1.5,3S20.002,26.657,20.002,25z"></path>
</svg>