<?xml version="1.0" encoding="UTF-8" standalone="no"?><!DOCTYPE svg PUBLIC "-//W3C//DTD SVG 1.1//EN" "http://www.w3.org/Graphics/SVG/1.1/DTD/svg11.dtd"><svg width="100%" height="100%" viewBox="0 0 48 48" version="1.1" xmlns="http://www.w3.org/2000/svg" xmlns:xlink="http://www.w3.org/1999/xlink" xml:space="preserve" style="fill-rule:evenodd;clip-rule:evenodd;stroke-linejoin:round;stroke-miterlimit:1.41421;"><circle cx="24" cy="24" r="20" style="fill:#ede7f6;"/><clipPath id="_clip1"><circle cx="24" cy="24" r="20"/></clipPath><g clip-path="url(#_clip1)"><path d="M24,38.225l-4.125,-4.95l0,-4.95l8.25,0l0,4.95l-4.125,4.95Z" style="fill:#ff9800;fill-rule:nonzero;"/><path d="M33.075,23.375c0,0.912 -0.739,1.65 -1.65,1.65c-0.912,0 -1.65,-0.738 -1.65,-1.65c0,-0.912 0.738,-1.65 1.65,-1.65c0.911,0 1.65,0.738 1.65,1.65m-14.85,0c0,-0.912 -0.739,-1.65 -1.65,-1.65c-0.912,0 -1.65,0.738 -1.65,1.65c0,0.912 0.738,1.65 1.65,1.65c0.911,0 1.65,-0.738 1.65,-1.65" style="fill:#ffa726;fill-rule:nonzero;"/><path d="M31.425,18.425c0,-6.299 -14.85,-4.101 -14.85,0l0,5.775c0,4.101 3.323,7.425 7.425,7.425c4.101,0 7.425,-3.324 7.425,-7.425l0,-5.775Z" style="fill:#ffb74d;fill-rule:nonzero;"/><path d="M24,11c-5.012,0 -8.25,4.064 -8.25,9.075l0,1.885l1.65,1.415l0,-4.125l9.9,-3.3l3.3,3.3l0,4.125l1.65,-1.437l0,-1.863c0,-3.321 -0.856,-6.613 -4.95,-7.425l-0.825,-1.65l-2.475,0Z" style="fill:#424242;fill-rule:nonzero;"/><path d="M26.475,23.375c0,-0.455 0.37,-0.825 0.825,-0.825c0.455,0 0.825,0.37 0.825,0.825c0,0.455 -0.37,0.825 -0.825,0.825c-0.455,0 -0.825,-0.37 -0.825,-0.825m-6.6,0c0,0.455 0.37,0.825 0.825,0.825c0.455,0 0.825,-0.37 0.825,-0.825c0,-0.455 -0.37,-0.825 -0.825,-0.825c-0.455,0 -0.825,0.37 -0.825,0.825" style="fill:#784719;fill-rule:nonzero;"/><path d="M28.125,33.275l-4.125,0.825l-4.125,-0.825c0,0 -9.075,1.638 -9.075,10.725l26.4,0c0,-9.054 -9.075,-10.725 -9.075,-10.725" style="fill:#cfd8dc;fill-rule:nonzero;"/><path d="M23.175,36.575l-0.825,7.425l3.3,0l-0.825,-7.425l0.825,-0.825l-1.65,-1.65l-1.65,1.65l0.825,0.825Z" style="fill:#3f51b5;fill-rule:nonzero;"/><rect x="28.125" y="39.05" width="5.775" height="3.3" style="fill:#fff;"/></g></svg>