<?xml version="1.0" encoding="UTF-8" standalone="no"?><!DOCTYPE svg PUBLIC "-//W3C//DTD SVG 1.1//EN" "http://www.w3.org/Graphics/SVG/1.1/DTD/svg11.dtd"><svg width="100%" height="100%" viewBox="0 0 48 48" version="1.1" xmlns="http://www.w3.org/2000/svg" xmlns:xlink="http://www.w3.org/1999/xlink" xml:space="preserve" style="fill-rule:evenodd;clip-rule:evenodd;stroke-linejoin:round;stroke-miterlimit:1.41421;"><circle cx="24" cy="24" r="20" style="fill:#ede7f6;"/><clipPath id="_clip1"><circle cx="24" cy="24" r="20"/></clipPath><g clip-path="url(#_clip1)"><rect x="17.171" y="19.244" width="13.659" height="15.366" style="fill:#bf360c;"/><path d="M37.659,44l-27.318,0c0,-9.402 9.391,-11.098 9.391,-11.098l8.536,0c0,0 9.391,1.729 9.391,11.098" style="fill:#b3e5fc;fill-rule:nonzero;"/><path d="M24,38.024c-1.872,0 -4.268,-5.122 -4.268,-5.122l0,-5.122l8.536,0l0,5.122c0,0 -2.397,5.122 -4.268,5.122" style="fill:#ff9800;fill-rule:nonzero;"/><path d="M31.683,18.39c0,-6.517 -15.366,-4.243 -15.366,0l0,5.976c0,4.243 3.439,7.683 7.683,7.683c4.244,0 7.683,-3.44 7.683,-7.683l0,-5.976Z" style="fill:#ffb74d;fill-rule:nonzero;"/><path d="M24,9.854c-5.186,0 -12.805,2.906 -12.805,19.878l5.976,4.024l0,-11.097l10.244,-5.976l3.414,4.268l0,12.805l5.976,-5.122c0,-3.436 -0.575,-17.073 -9.39,-17.073l-0.854,-1.707l-2.561,0Z" style="fill:#ff5722;fill-rule:nonzero;"/><path d="M24,38.878c-3.773,0 -4.268,-5.976 -4.268,-5.976c0,0 2.14,3.415 4.268,3.415c2.128,0 4.268,-3.415 4.268,-3.415c0,0 -0.495,5.976 -4.268,5.976" style="fill:#ffb74d;fill-rule:nonzero;"/><path d="M26.561,24.366c0,0.47 0.382,0.854 0.854,0.854c0.471,0 0.853,-0.384 0.853,-0.854c0,-0.471 -0.382,-0.854 -0.853,-0.854c-0.472,0 -0.854,0.383 -0.854,0.854" style="fill:#784719;fill-rule:nonzero;"/><path d="M19.732,24.366c0,0.47 0.382,0.854 0.853,0.854c0.472,0 0.854,-0.384 0.854,-0.854c0,-0.471 -0.382,-0.854 -0.854,-0.854c-0.471,0 -0.853,0.383 -0.853,0.854" style="fill:#784719;fill-rule:nonzero;"/><path d="M30.829,10.707c0,0 -2.561,-1.707 -6.829,-1.707c-4.268,0 -6.829,1.707 -6.829,1.707l0,8.537c0,0 2.561,-1.707 6.829,-1.707c4.268,0 6.829,1.707 6.829,1.707l0,-8.537Z" style="fill:#b3e5fc;fill-rule:nonzero;"/><rect x="23.146" y="10.707" width="1.707" height="5.122" style="fill:#f44336;"/><rect x="21.439" y="12.415" width="5.122" height="1.707" style="fill:#f44336;"/><rect x="17.171" y="19.244" width="13.659" height="15.366" style="fill:#bf360c;"/><path d="M37.659,44l-27.318,0c0,-9.402 9.391,-11.098 9.391,-11.098l8.536,0c0,0 9.391,1.729 9.391,11.098" style="fill:#b3e5fc;fill-rule:nonzero;"/><path d="M24,38.024c-1.872,0 -4.268,-5.122 -4.268,-5.122l0,-5.122l8.536,0l0,5.122c0,0 -2.397,5.122 -4.268,5.122" style="fill:#ff9800;fill-rule:nonzero;"/><path d="M31.683,18.39c0,-6.517 -15.366,-4.243 -15.366,0l0,5.976c0,4.243 3.439,7.683 7.683,7.683c4.244,0 7.683,-3.44 7.683,-7.683l0,-5.976Z" style="fill:#ffb74d;fill-rule:nonzero;"/><path d="M24,9.854c-5.186,0 -12.805,2.906 -12.805,19.878l5.976,4.024l0,-11.097l10.244,-5.976l3.414,4.268l0,12.805l5.976,-5.122c0,-3.436 -0.575,-17.073 -9.39,-17.073l-0.854,-1.707l-2.561,0Z" style="fill:#ff5722;fill-rule:nonzero;"/><path d="M24,38.878c-3.773,0 -4.268,-5.976 -4.268,-5.976c0,0 2.14,3.415 4.268,3.415c2.128,0 4.268,-3.415 4.268,-3.415c0,0 -0.495,5.976 -4.268,5.976" style="fill:#ffb74d;fill-rule:nonzero;"/><path d="M26.561,24.366c0,0.47 0.382,0.854 0.854,0.854c0.471,0 0.853,-0.384 0.853,-0.854c0,-0.471 -0.382,-0.854 -0.853,-0.854c-0.472,0 -0.854,0.383 -0.854,0.854" style="fill:#784719;fill-rule:nonzero;"/><path d="M19.732,24.366c0,0.47 0.382,0.854 0.853,0.854c0.472,0 0.854,-0.384 0.854,-0.854c0,-0.471 -0.382,-0.854 -0.854,-0.854c-0.471,0 -0.853,0.383 -0.853,0.854" style="fill:#784719;fill-rule:nonzero;"/><path d="M30.829,10.707c0,0 -2.561,-1.707 -6.829,-1.707c-4.268,0 -6.829,1.707 -6.829,1.707l0,8.537c0,0 2.561,-1.707 6.829,-1.707c4.268,0 6.829,1.707 6.829,1.707l0,-8.537Z" style="fill:#b3e5fc;fill-rule:nonzero;"/><rect x="23.146" y="10.707" width="1.707" height="5.122" style="fill:#f44336;"/><rect x="21.439" y="12.415" width="5.122" height="1.707" style="fill:#f44336;"/><rect x="17.171" y="19.244" width="13.659" height="15.366" style="fill:#bf360c;"/><path d="M37.659,44l-27.318,0c0,-9.402 9.391,-11.098 9.391,-11.098l8.536,0c0,0 9.391,1.729 9.391,11.098" style="fill:#b3e5fc;fill-rule:nonzero;"/><path d="M24,38.024c-1.872,0 -4.268,-5.122 -4.268,-5.122l0,-5.122l8.536,0l0,5.122c0,0 -2.397,5.122 -4.268,5.122" style="fill:#ff9800;fill-rule:nonzero;"/><path d="M31.683,18.39c0,-6.517 -15.366,-4.243 -15.366,0l0,5.976c0,4.243 3.439,7.683 7.683,7.683c4.244,0 7.683,-3.44 7.683,-7.683l0,-5.976Z" style="fill:#ffb74d;fill-rule:nonzero;"/><path d="M24,9.854c-5.186,0 -12.805,2.906 -12.805,19.878l5.976,4.024l0,-11.097l10.244,-5.976l3.414,4.268l0,12.805l5.976,-5.122c0,-3.436 -0.575,-17.073 -9.39,-17.073l-0.854,-1.707l-2.561,0Z" style="fill:#ff5722;fill-rule:nonzero;"/><path d="M24,38.878c-3.773,0 -4.268,-5.976 -4.268,-5.976c0,0 2.14,3.415 4.268,3.415c2.128,0 4.268,-3.415 4.268,-3.415c0,0 -0.495,5.976 -4.268,5.976" style="fill:#ffb74d;fill-rule:nonzero;"/><path d="M26.561,24.366c0,-0.471 0.382,-0.854 0.854,-0.854c0.471,0 0.853,0.383 0.853,0.854c0,0.47 -0.382,0.854 -0.853,0.854c-0.472,0 -0.854,-0.384 -0.854,-0.854m-6.829,0c0,0.47 0.382,0.854 0.853,0.854c0.472,0 0.854,-0.384 0.854,-0.854c0,-0.471 -0.382,-0.854 -0.854,-0.854c-0.471,0 -0.853,0.383 -0.853,0.854" style="fill:#784719;fill-rule:nonzero;"/><path d="M30.829,10.707c0,0 -2.561,-1.707 -6.829,-1.707c-4.268,0 -6.829,1.707 -6.829,1.707l0,8.537c0,0 2.561,-1.707 6.829,-1.707c4.268,0 6.829,1.707 6.829,1.707l0,-8.537Z" style="fill:#b3e5fc;fill-rule:nonzero;"/><path d="M26.561,12.415l-1.707,0l0,-1.708l-1.708,0l0,1.708l-1.707,0l0,1.707l1.707,0l0,1.707l1.708,0l0,-1.707l1.707,0l0,-1.707Z" style="fill:#f44336;fill-rule:nonzero;"/></g></svg>