<?xml version="1.0" encoding="UTF-8" standalone="no"?><!DOCTYPE svg PUBLIC "-//W3C//DTD SVG 1.1//EN" "http://www.w3.org/Graphics/SVG/1.1/DTD/svg11.dtd"><svg width="100%" height="100%" viewBox="0 0 48 48" version="1.1" xmlns="http://www.w3.org/2000/svg" xmlns:xlink="http://www.w3.org/1999/xlink" xml:space="preserve" style="fill-rule:evenodd;clip-rule:evenodd;stroke-linejoin:round;stroke-miterlimit:1.41421;"><circle cx="24" cy="24" r="20" style="fill:#ede7f6;"/><clipPath id="_clip1"><circle cx="24" cy="24" r="20"/></clipPath><g clip-path="url(#_clip1)"><g><path d="M24,38.225l-4.125,-4.95l0,-4.95l8.25,0l0,4.95l-4.125,4.95Z" style="fill:#5000a0;fill-rule:nonzero;"/><path d="M33.075,23.375c0,0.912 -0.739,1.65 -1.65,1.65c-0.912,0 -1.65,-0.738 -1.65,-1.65c0,-0.912 0.738,-1.65 1.65,-1.65c0.911,0 1.65,0.738 1.65,1.65m-14.85,0c0,-0.912 -0.739,-1.65 -1.65,-1.65c-0.912,0 -1.65,0.738 -1.65,1.65c0,0.912 0.738,1.65 1.65,1.65c0.911,0 1.65,-0.738 1.65,-1.65" style="fill:#7200d6;fill-rule:nonzero;"/><path d="M31.425,20.425c0,-9.735 -14.85,-9.797 -14.85,0l0,3.775c0,4.101 3.323,7.425 7.425,7.425c4.101,0 7.425,-3.324 7.425,-7.425l0,-3.775Z" style="fill:#7200d6;fill-rule:nonzero;"/><path d="M28.125,33.275l-4.125,0.825l-4.125,-0.825c0,0 -9.075,1.638 -9.075,10.725l26.4,0c0,-9.054 -9.075,-10.725 -9.075,-10.725" style="fill:#7200d6;fill-rule:nonzero;"/></g></g><text x="20.152px" y="28.139px" style="font-family:'HelveticaNeue-CondensedBold', 'Helvetica Neue';font-weight:700;font-stretch:condensed;font-size:16px;fill:#fff;">?</text></svg>