<svg id="_x33_0" enable-background="new 0 0 64 64" height="512" viewBox="0 0 64 64" width="512" xmlns="http://www.w3.org/2000/svg"><g><g><path d="m27.5 15.5-3.5 3.5.02.09c-.94.25-1.68.99-1.93 1.93l-.09-.02v-8-10c0-.55.45-1 1-1h19c-5.52 0-10 4.48-10 10v1l-.01.04c-.16-.03-.33-.04-.49-.04-.96 0-1.88.38-2.56 1.06z" fill="#b4dd7f"/><path d="m62 3v18c0 .55-.45 1-1 1h-19c5.52 0 10-4.48 10-10s-4.48-10-10-10h19c.55 0 1 .45 1 1z" fill="#b4dd7f"/><path d="m42 22-7.94-7.94c-.56-.56-1.29-.92-2.07-1.02l.01-.04v-1c0-5.52 4.48-10 10-10s10 4.48 10 10-4.48 10-10 10z" fill="#fcd770"/><path d="m20 47-3 15h-15v-10l8-10z" fill="#fcd770"/><path d="m28.12 22.12c-.01-.1-.02-.19-.03-.27-.07-.68-.3-1.35-.73-1.88-.4-.49-.8-.73-1.23-.85s-.89-.12-1.41-.12c-.24 0-.48.03-.7.09-.94.25-1.68.99-1.93 1.93l-.09-.02v-8l-9.21 9.21c-1.21 1.21-2.16 2.65-2.81 4.2-.64 1.55-.98 3.23-.98 4.95 0 .42.02.85.06 1.28l.94 9.36 10 5c2.83-2.12 6.16-4.25 7.87-7.08.7-1.17 1.13-2.46 1.13-3.92 0-4.99-.61-11.34-.88-13.88z" fill="#f0d0b4"/><g fill="#4fc1e9"><path d="m22 21 .09.02c-.06.22-.09.46-.09.7v8.28c0 1.21-.32 2.26-.91 3.07l-.09-.07-2.12-2.83c-.57-.76-.88-1.68-.88-2.63 0-1 .34-1.96.96-2.74z"/><path d="m29 36c0-4.99-.61-11.34-.88-13.88l18.44 18.44-6.44 6.44c-.68.68-1.6 1.06-2.56 1.06s-1.88-.38-2.56-1.06l-7-7-.13-.08c.7-1.17 1.13-2.46 1.13-3.92z"/><path d="m51 31c.68.68 1.06 1.6 1.06 2.56s-.38 1.88-1.06 2.56l-1.44 1.44-22.06-22.06 1.44-1.44c.68-.68 1.6-1.06 2.56-1.06.16 0 .33.01.49.04.78.1 1.51.46 2.07 1.02l7.94 7.94z"/></g><path d="m26.13 19.12c-.43-.12-.89-.12-1.41-.12-.24 0-.48.03-.7.09l-.02-.09 3.5-3.5 22.06 22.06-3 3-18.44-18.44c-.01-.1-.02-.19-.03-.27-.07-.68-.3-1.35-.73-1.88-.4-.49-.8-.73-1.23-.85z" fill="#aab2bd"/><path d="m35.879 38.879h4.243v4.243h-4.243z" fill="#e6e9ed" transform="matrix(.707 -.707 .707 .707 -17.861 38.879)"/></g><g><path d="m43 5h-2v2h-2v6h4v2h-4v2h2v2h2v-2h2v-6h-4v-2h4v-2h-2z"/><path d="m61 1h-38c-1.103 0-2 .897-2 2v9.586l-8.92 8.92c-2.631 2.631-4.08 6.129-4.08 9.849 0 .46.023.926.069 1.386l.895 8.953-7.964 9.955v11.351h16.82l3.085-15.424c.359-.266.719-.532 1.088-.8 2.147-1.565 4.454-3.252 6.038-5.331l6.262 6.262c.873.873 2.033 1.354 3.268 1.354s2.396-.481 3.268-1.354l10.879-10.878c.873-.873 1.354-2.033 1.354-3.268 0-1.234-.48-2.395-1.354-3.268l-7.294-7.293h16.586c1.103 0 2-.897 2-2v-18c0-1.103-.897-2-2-2zm-26.232 12.354c-.505-.505-1.112-.86-1.768-1.086v-.268c0-4.962 4.038-9 9-9s9 4.038 9 9c0 4.829-3.827 8.772-8.606 8.98zm.927-10.354c-2.834 1.992-4.695 5.28-4.695 9v.049c-1.044.113-2.015.552-2.768 1.305l-4.93 4.93c-.106.044-.202.104-.302.158v-15.442zm-6.622 18.659c-.11-.892-.431-1.694-.938-2.319-.59-.727-1.224-1.054-1.855-1.206l1.22-1.22 20.646 20.646-1.586 1.586zm-8.073 8.341c0 .409-.06.783-.145 1.14l-1.177-1.57c-.438-.583-.678-1.304-.678-2.032 0-.766.263-1.517.742-2.115l1.258-1.573zm-4.82 31h-13.18v-8.649l7.276-9.095 8.594 4.297zm4.633-15.84c-.309.225-.61.449-.913.672l-8.96-4.48-.881-8.81c-.039-.394-.059-.791-.059-1.187 0-3.186 1.241-6.182 3.494-8.435l7.506-7.506v5.235l-2.82 3.524c-.761.952-1.18 2.147-1.18 3.365 0 1.158.382 2.305 1.077 3.231l1.692 2.256c-.688.618-1.629.975-2.769.975v2c3.533 0 6-2.467 6-6v-8.281c0-.948.771-1.719 1.719-1.719 1.045 0 1.398.027 1.863.601.281.346.459.816.518 1.36.271 2.532.9 8.97.9 14.039 0 3.919-3.653 6.583-7.187 9.16zm18.601 1.133c-.981.982-2.724.983-3.707 0l-6.591-6.591c.369-.748.634-1.546.77-2.401l2.407 2.407 1.414-1.414-3.723-3.723c-.067-3.347-.344-7.025-.594-9.766l15.756 15.755zm11.647-12.732c0 .69-.28 1.366-.768 1.854l-.732.732-20.647-20.647.732-.732c.99-.99 2.717-.99 3.707 0l16.939 16.939c.496.495.769 1.153.769 1.854zm9.939-12.561h-12.695c2.834-1.992 4.695-5.28 4.695-9s-1.861-7.008-4.695-9h12.695z"/><path d="m57 9h2v-4h-4v2h2z"/><path d="m59 15h-2v2h-2v2h4z"/><path d="m27 7h2v-2h-4v4h2z"/><path d="m38 36.586-4.414 4.414 4.414 4.414 4.414-4.414zm-1.586 4.414 1.586-1.586 1.586 1.586-1.586 1.586z"/><path d="m33 31.172h2v5.657h-2z" transform="matrix(.707 -.707 .707 .707 -14.083 34)"/></g></g></svg>