<?xml version="1.0" encoding="UTF-8" standalone="no"?><!DOCTYPE svg PUBLIC "-//W3C//DTD SVG 1.1//EN" "http://www.w3.org/Graphics/SVG/1.1/DTD/svg11.dtd"><svg width="100%" height="100%" viewBox="0 0 48 48" version="1.1" xmlns="http://www.w3.org/2000/svg" xmlns:xlink="http://www.w3.org/1999/xlink" xml:space="preserve" style="fill-rule:evenodd;clip-rule:evenodd;stroke-linecap:round;"><circle cx="24" cy="24" r="20" style="fill:#ede7f6;"/><clipPath id="_clip1"><circle cx="24" cy="24" r="20"/></clipPath><g clip-path="url(#_clip1)"><g><path d="M24,38.225l-4.125,-4.95l0,-4.95l8.25,0l0,4.95l-4.125,4.95Z" style="fill:#ff9800;fill-rule:nonzero;"/><path d="M33.075,23.375c0,0.912 -0.739,1.65 -1.65,1.65c-0.912,0 -1.65,-0.738 -1.65,-1.65c0,-0.912 0.738,-1.65 1.65,-1.65c0.911,0 1.65,0.738 1.65,1.65m-14.85,0c0,-0.912 -0.739,-1.65 -1.65,-1.65c-0.912,0 -1.65,0.738 -1.65,1.65c0,0.912 0.738,1.65 1.65,1.65c0.911,0 1.65,-0.738 1.65,-1.65" style="fill:#ffa726;fill-rule:nonzero;"/><path d="M31.425,18.425c0,-6.299 -14.85,-4.101 -14.85,0l0,5.775c0,4.101 3.323,7.425 7.425,7.425c4.101,0 7.425,-3.324 7.425,-7.425l0,-5.775Z" style="fill:#ffb74d;fill-rule:nonzero;"/><path d="M24,11c-5.012,0 -8.25,4.064 -8.25,9.075l0,1.885l1.65,1.415l0,-4.125l9.9,-3.3l3.3,3.3l0,4.125l1.65,-1.437l0,-1.863c0,-3.321 -0.856,-6.613 -4.95,-7.425l-0.825,-1.65l-2.475,0Z" style="fill:#424242;fill-rule:nonzero;"/><path d="M26.475,23.375c0,-0.455 0.37,-0.825 0.825,-0.825c0.455,0 0.825,0.37 0.825,0.825c0,0.455 -0.37,0.825 -0.825,0.825c-0.455,0 -0.825,-0.37 -0.825,-0.825m-6.6,0c0,0.455 0.37,0.825 0.825,0.825c0.455,0 0.825,-0.37 0.825,-0.825c0,-0.455 -0.37,-0.825 -0.825,-0.825c-0.455,0 -0.825,0.37 -0.825,0.825" style="fill:#784719;fill-rule:nonzero;"/><path d="M28.125,33.275l-4.125,0.825l-4.125,-0.825c0,0 -9.075,1.638 -9.075,10.725l26.4,0c0,-9.054 -9.075,-10.725 -9.075,-10.725" style="fill:#cfd8dc;fill-rule:nonzero;"/><path d="M23.175,36.575l-0.825,7.425l3.3,0l-0.825,-7.425l0.825,-0.825l-1.65,-1.65l-1.65,1.65l0.825,0.825Z" style="fill:#3f51b5;fill-rule:nonzero;"/><rect x="28.125" y="39.05" width="5.775" height="3.3" style="fill:#fff;"/></g></g><g><path d="M30.929,13.948l-7.715,-1.883l0.084,-4.065l2.088,2.144l2.862,-1.957l1.638,3.055l2.842,-0.94l-1.799,3.646Z" style="fill:#ffc107;fill-rule:nonzero;"/><g><path d="M30.929,13.948l-7.715,-1.883l-0.392,1.608l7.715,1.882l0.392,-1.607Z" style="fill:#ff9800;"/><path d="M28.687,6.386c0.355,0.087 0.573,0.445 0.486,0.8c-0.086,0.355 -0.445,0.572 -0.799,0.486c-0.355,-0.087 -0.573,-0.445 -0.486,-0.8c0.086,-0.355 0.445,-0.573 0.799,-0.486Z" style="fill:#ff9800;"/><path d="M33.514,8.473c0.355,0.086 0.573,0.445 0.486,0.8c-0.086,0.354 -0.445,0.572 -0.799,0.486c-0.355,-0.087 -0.573,-0.445 -0.486,-0.8c0.086,-0.355 0.445,-0.573 0.799,-0.486Z" style="fill:#ff9800;"/><path d="M23.442,6.015c0.354,0.086 0.572,0.444 0.486,0.799c-0.087,0.355 -0.445,0.573 -0.8,0.486c-0.355,-0.086 -0.573,-0.445 -0.486,-0.8c0.086,-0.354 0.445,-0.572 0.8,-0.485Z" style="fill:#ff9800;"/></g><path d="M22.992,23.276c0,1.073 -0.91,1.95 -2.438,1.95l-0.293,0c-1.528,0 -2.145,-0.877 -2.145,-1.95c0,-1.073 0.13,-1.951 2.275,-1.951l0.326,0c2.145,0 2.275,0.878 2.275,1.951Zm6.827,0c0,-1.073 -0.13,-1.951 -2.275,-1.951l-0.326,0c-2.145,0 -2.275,0.878 -2.275,1.951c0,1.073 0.617,1.95 2.145,1.95l0.293,0c1.528,0 2.438,-0.877 2.438,-1.95Z" style="fill:#bbdefb;fill-rule:nonzero;"/><path d="M29.364,28.152c1.008,0.293 0.65,1.756 -1.073,1.171c-0.812,-0.261 -1.203,-1.138 -1.625,-1.626c-0.358,-0.455 -0.845,-0.845 -1.723,-0.845c-0.39,0 -0.748,0.162 -1.008,0.39c-0.26,-0.26 -0.618,-0.39 -1.008,-0.39c-0.845,0 -1.365,0.39 -1.723,0.845c-0.39,0.488 -0.813,1.398 -1.625,1.626c-1.723,0.585 -2.081,-0.878 -1.073,-1.171c-0.65,-0.065 -1.04,0.325 -1.04,0.91c0,0.781 0.487,1.691 2.925,1.691c1.333,0 2.829,-0.358 3.576,-1.138c0.748,0.813 2.244,1.138 3.577,1.138c2.405,0 2.925,-0.878 2.925,-1.691c0,-0.585 -0.39,-0.975 -1.105,-0.91Z" style="fill:#795548;fill-rule:nonzero;"/><path d="M30.047,28.282c-0.033,0 -0.065,-0.032 -0.098,-0.032c-0.032,0 -0.032,-0.033 -0.065,-0.033c-0.065,-0.032 -0.13,-0.032 -0.195,-0.032l-0.325,0c0.423,0.13 0.618,0.455 0.553,0.747c0.065,0.326 -0.033,0.716 -0.553,1.041c-0.357,0.162 -0.91,0.292 -1.788,0.292c-1.073,0 -2.601,-0.325 -3.251,-1.073c-0.195,-0.227 -0.325,-0.487 -0.325,-0.812c0,0.325 -0.13,0.585 -0.325,0.812c-0.65,0.748 -2.178,1.073 -3.251,1.073c-0.878,0 -1.431,-0.13 -1.788,-0.292c-0.553,-0.325 -0.65,-0.715 -0.553,-1.041c-0.065,-0.292 0.13,-0.65 0.553,-0.747l-0.325,0c-0.065,0 -0.13,0.032 -0.195,0.032c-0.033,0 -0.065,0.033 -0.098,0.033c-0.032,0 -0.032,0.032 -0.065,0.032c-0.325,0.13 -0.487,0.423 -0.487,0.78c0,0.781 0.487,1.691 2.925,1.691c1.008,0 2.081,-0.195 2.894,-0.618c0.26,-0.13 0.487,-0.325 0.682,-0.52c0.748,0.813 2.244,1.138 3.577,1.138c0.617,0 1.105,-0.065 1.463,-0.163c1.072,-0.26 1.397,-0.845 1.43,-1.365c0,-0.065 0,-0.098 0,-0.163c0.032,-0.357 -0.13,-0.65 -0.39,-0.78Z" style="fill:#4e342e;fill-rule:nonzero;"/><path d="M30.795,21.65c-0.065,-0.065 -0.911,-0.65 -3.251,-0.65l-0.326,0c-0.162,0 -0.325,0 -0.487,0.033c-1.073,0.065 -1.658,0.227 -2.243,0.52c-0.033,0 -0.228,0.097 -0.488,0.097l-0.033,0c-0.26,0 -0.455,-0.097 -0.487,-0.097l-0.065,-0.033c-0.553,-0.26 -0.91,-0.455 -2.243,-0.52l-0.423,0l-0.325,0c-2.341,0 -3.186,0.585 -3.251,0.65c-0.195,0 -0.325,0.13 -0.325,0.325l0,0.325c0,0.195 0.13,0.325 0.325,0.325c0,0 0.65,0 0.65,0.326l0,0.325c0,1.43 0.91,2.275 2.471,2.275l0.292,0c1.626,0 2.764,-0.942 2.764,-2.275c0,-0.163 0,-0.325 -0.033,-0.488l0.163,-0.065c0.032,0 0.227,-0.098 0.52,-0.098l0.033,0c0.26,0 0.487,0.098 0.487,0.098l0.163,0.065c0,0.163 -0.033,0.325 -0.033,0.488c0,1.43 0.91,2.275 2.471,2.275l0.293,0c1.625,0 2.763,-0.942 2.763,-2.275c0,-0.098 0,-0.195 0,-0.26c0,0 0,-0.033 0,-0.065c0,-0.326 0.65,-0.326 0.65,-0.326c0.195,0 0.325,-0.13 0.325,-0.325l0,-0.325c-0.032,-0.195 -0.162,-0.325 -0.357,-0.325Zm-6.015,0.488l0,0Zm-1.625,0l0,0Zm-2.601,2.763l-0.293,0c-1.495,0 -1.82,-0.878 -1.82,-1.625c0,-0.911 0,-1.626 1.95,-1.626c0.26,0 0.488,0 0.683,0c1.593,0.098 1.593,0.78 1.593,1.626c0,0.942 -0.878,1.625 -2.113,1.625Zm6.827,0l-0.293,0c-1.495,0 -1.82,-0.878 -1.82,-1.625c0,-0.813 0,-1.463 1.43,-1.593c0.228,-0.033 0.52,-0.033 0.846,-0.033c1.95,0 1.95,0.715 1.95,1.626c0,0.942 -0.878,1.625 -2.113,1.625Z" style="fill:#0097a7;fill-rule:nonzero;"/><path d="M19.416,23.276c0,0 0,-0.651 0.975,-0.651m6.827,0c-0.975,0 -0.975,0.651 -0.975,0.651" style="fill:none;stroke:#fff;stroke-width:0.65px;"/></g></svg>