<?xml version="1.0" encoding="iso-8859-1"?>
<!-- Generator: Adobe Illustrator 19.0.0, SVG Export Plug-In . SVG Version: 6.00 Build 0)  -->
<svg version="1.1" id="Capa_1" xmlns="http://www.w3.org/2000/svg" xmlns:xlink="http://www.w3.org/1999/xlink" x="0px" y="0px"
	 viewBox="0 0 512 512" style="enable-background:new 0 0 512 512;" xml:space="preserve">
<circle style="fill:#333940;" cx="256" cy="256" r="256"/>
<path d="M339.798,497.954C440.025,463.245,512,368.034,512,256c0-2.102-0.029-4.197-0.08-6.287L363.5,101.292L140.851,267.821
	l9.384,9.383L148.5,277.5l63.759,63.759l-20.617,8.538L339.798,497.954z"/>
<path style="fill:#B5FB4A;" d="M294.5,373.643V348h-77v25.643c0,11.622-7.268,22.004-18.188,25.981l-118.397,43.12
	C126.701,485.688,188.273,512,256,512s129.299-26.312,175.085-69.256l-118.397-43.12C301.768,395.647,294.5,385.265,294.5,373.643z"
	/>
<path style="fill:#77DD00;" d="M431.085,442.744l-118.397-43.12c-10.92-3.977-18.188-14.359-18.188-25.981V348h-38.929v163.995
	c0.143,0,0.285,0.005,0.429,0.005C323.727,512,385.299,485.688,431.085,442.744z"/>
<circle style="fill:#FFBEAA;" cx="158.57" cy="239.9" r="33.07"/>
<path style="fill:#FFCDBE;" d="M300.032,363.714l-22.084,11.345c-13.776,7.077-30.12,7.077-43.896,0l-22.084-11.345
	c-32.726-16.811-53.301-50.512-53.301-87.303v-86.077C158.667,136.578,202.244,93,256,93l0,0c53.756,0,97.333,43.578,97.333,97.333
	v86.077C353.333,313.202,332.758,346.903,300.032,363.714z"/>
<path style="fill:#FFBEAA;" d="M256,93L256,93c-0.143,0-0.285,0.005-0.429,0.005v287.348c7.673,0.068,15.358-1.689,22.377-5.295
	l22.084-11.344c32.726-16.811,53.301-50.512,53.301-87.304v-86.077C353.333,136.578,309.756,93,256,93z"/>
<rect x="343.5" y="190.5" style="fill:#E55710;" width="20" height="87"/>
<path style="fill:#FE6A16;" d="M238.5,224.333h-51.333c-31.572,0-57.167-25.594-57.167-57.167l0,0c0-47.22,38.28-85.5,85.5-85.5
	h70.167c5.523,0,10,4.477,10,10v75.5C295.667,198.739,270.072,224.333,238.5,224.333z"/>
<g>
	<path style="fill:#E55710;" d="M285.667,81.667h-30.095v140.072c23.233-7.26,40.095-28.946,40.095-54.572v-75.5
		C295.667,86.144,291.189,81.667,285.667,81.667z"/>
	<path style="fill:#E55710;" d="M339.426,224.333L339.426,224.333c-25.64,0-46.426-20.786-46.426-46.426V92.833
		c0-6.167,4.999-11.167,11.167-11.167h10.093c39.539,0,71.593,32.053,71.593,71.593v24.648
		C385.852,203.548,365.066,224.333,339.426,224.333z"/>
</g>
<path style="fill:#E1E5EA;" d="M380.848,290.475H360.25V182.423h20.598c16.903,0,30.606,13.703,30.606,30.606v46.84
	C411.454,276.772,397.751,290.475,380.848,290.475z"/>
<path style="fill:#FFFFFF;" d="M381.119,361.167H262v-27h92.119V181.712c0-51.397-41.814-93.212-93.212-93.212h-9.814
	c-51.397,0-93.212,41.815-93.212,93.212h-27c0-66.285,53.927-120.212,120.212-120.212h9.814
	c66.285,0,120.212,53.927,120.212,120.212L381.119,361.167L381.119,361.167z"/>
<path style="fill:#E1E5EA;" d="M260.907,61.5h-5.336v27h5.336c51.397,0,93.212,41.815,93.212,93.212v152.455H262v27h119.119V181.712
	C381.119,115.427,327.192,61.5,260.907,61.5z"/>
<path style="fill:#5A54E0;" d="M279.333,373.667h-20.667C244.491,373.667,233,362.175,233,348l0,0
	c0-14.175,11.491-25.667,25.667-25.667h20.667C293.509,322.333,305,333.825,305,348l0,0
	C305,362.175,293.509,373.667,279.333,373.667z"/>
<path style="fill:#3A41CC;" d="M279.333,322.333h-20.667c-1.048,0-2.08,0.07-3.095,0.192v50.949
	c1.016,0.122,2.047,0.192,3.095,0.192h20.667C293.509,373.667,305,362.175,305,348l0,0C305,333.825,293.509,322.333,279.333,322.333
	z"/>
<rect x="148.5" y="190.5" style="fill:#FE6A16;" width="20" height="87"/>
<g>
</g>
<g>
</g>
<g>
</g>
<g>
</g>
<g>
</g>
<g>
</g>
<g>
</g>
<g>
</g>
<g>
</g>
<g>
</g>
<g>
</g>
<g>
</g>
<g>
</g>
<g>
</g>
<g>
</g>
</svg>
