<?xml version="1.0" encoding="UTF-8" standalone="no"?>
<!-- Created with Inkscape (http://www.inkscape.org/) -->

<svg
   xmlns:dc="http://purl.org/dc/elements/1.1/"
   xmlns:cc="http://creativecommons.org/ns#"
   xmlns:rdf="http://www.w3.org/1999/02/22-rdf-syntax-ns#"
   xmlns:svg="http://www.w3.org/2000/svg"
   xmlns="http://www.w3.org/2000/svg"
   xmlns:sodipodi="http://sodipodi.sourceforge.net/DTD/sodipodi-0.dtd"
   xmlns:inkscape="http://www.inkscape.org/namespaces/inkscape"
   width="100mm"
   height="120mm"
   viewBox="0 0 210 297"
   version="1.1"
   id="svg8"
   inkscape:version="0.92.3 (2405546, 2018-03-11)"
   sodipodi:docname="modulo.svg">
  <defs
     id="defs2" />
  <sodipodi:namedview
     id="base"
     pagecolor="#ffffff"
     bordercolor="#666666"
     borderopacity="1.0"
     inkscape:pageopacity="0.0"
     inkscape:pageshadow="2"
     inkscape:zoom="0.35"
     inkscape:cx="-144.027"
     inkscape:cy="560"
     inkscape:document-units="mm"
     inkscape:current-layer="layer1"
     showgrid="false"
     inkscape:snap-page="true"
     inkscape:window-width="1920"
     inkscape:window-height="1017"
     inkscape:window-x="-8"
     inkscape:window-y="-8"
     inkscape:window-maximized="1" />
  <metadata
     id="metadata5">
    <rdf:RDF>
      <cc:Work
         rdf:about="">
        <dc:format>image/svg+xml</dc:format>
        <dc:type
           rdf:resource="http://purl.org/dc/dcmitype/StillImage" />
        <dc:title />
      </cc:Work>
    </rdf:RDF>
  </metadata>
  <g
     inkscape:label="Capa 1"
     inkscape:groupmode="layer"
     id="layer1">
    <g
       id="g50"
       transform="matrix(6.9757875,0,0,7.6021,-35.720655,-8.655763)">
      <g
         id="g3">
        <path
           id="path5"
           d="M 6.5,37.5 V 2.5 H 35 c 0.275,0 0.5,0.224 0.5,0.5 v 34 c 0,0.276 -0.225,0.5 -0.5,0.5 z"
           style="fill:#98ccfd"
           inkscape:connector-curvature="0" />
        <g
           id="g7">
          <path
             id="path9"
             d="M 35,3 V 37 H 7 V 3 H 35 M 35,2 H 6 v 36 h 29 c 0.552,0 1,-0.448 1,-1 V 3 C 36,2.448 35.552,2 35,2 Z"
             style="fill:#4788c7"
             inkscape:connector-curvature="0" />
        </g>
      </g>
      <g
         id="g11">
        <path
           id="path13"
           d="M 9,38 H 5 C 4.448,38 4,37.552 4,37 V 3 C 4,2.448 4.448,2 5,2 h 4 z"
           style="fill:#4788c7"
           inkscape:connector-curvature="0" />
      </g>
      <rect
         id="rect15"
         height="10"
         width="15"
         style="fill:#ffffff"
         y="8"
         x="14" />
      <path
         inkscape:connector-curvature="0"
         id="path17"
         d="m 26.5,12 h -10 C 16.225,12 16,11.775 16,11.5 v 0 C 16,11.225 16.225,11 16.5,11 h 10 c 0.275,0 0.5,0.225 0.5,0.5 v 0 c 0,0.275 -0.225,0.5 -0.5,0.5 z"
         style="fill:#4788c7" />
      <path
         inkscape:connector-curvature="0"
         id="path19"
         d="m 26.5,15 h -10 C 16.225,15 16,14.775 16,14.5 v 0 C 16,14.225 16.225,14 16.5,14 h 10 c 0.275,0 0.5,0.225 0.5,0.5 v 0 c 0,0.275 -0.225,0.5 -0.5,0.5 z"
         style="fill:#4788c7" />
      <g
         transform="matrix(0.34086629,0,0,0.34086629,3.8619169,23.864072)"
         id="g4173">
        <g
           transform="translate(25.830509,-12.580508)"
           style="clip-rule:evenodd;fill-rule:evenodd;stroke-linejoin:round;stroke-miterlimit:1.41420996"
           id="g4">
          <rect
             x="10"
             y="9"
             width="28"
             height="7"
             style="fill:#d17a00"
             id="rect6" />
          <g
             id="g8">
            <path
               inkscape:connector-curvature="0"
               d="M 10,23 H 6 v -8 l 4,-6 z"
               style="fill:#8a5100;fill-rule:nonzero"
               id="path10" />
            <path
               inkscape:connector-curvature="0"
               d="m 38,23 h 4 V 15 L 38,9 Z"
               style="fill:#8a5100;fill-rule:nonzero"
               id="path12" />
          </g>
          <path
             inkscape:connector-curvature="0"
             d="M 40,43 H 8 C 6.9,43 6,42.1 6,41 V 15 h 36 v 26 c 0,1.1 -0.9,2 -2,2 z"
             style="fill:#ff9800;fill-rule:nonzero"
             id="path14" />
          <path
             inkscape:connector-curvature="0"
             d="m 27.5,22 h -7 C 19.7,22 19,21.3 19,20.5 19,19.7 19.7,19 20.5,19 h 7 c 0.8,0 1.5,0.7 1.5,1.5 0,0.8 -0.7,1.5 -1.5,1.5 z"
             style="fill:#8a5100;fill-rule:nonzero"
             id="path16" />
        </g>
        <path
           inkscape:connector-curvature="0"
           d="m 51.830509,-5.5805085 h 4 l -6,7 -6,-7 h 4 v -4.4999995 h 4 z"
           style="clip-rule:evenodd;fill:#00a60b;fill-rule:evenodd;stroke-linejoin:round;stroke-miterlimit:1.41420996"
           id="path18" />
      </g>
    </g>
    <rect
       style="fill:#98ccfd;fill-opacity:1;stroke-width:0;stroke-miterlimit:4;stroke-dasharray:none"
       id="rect125"
       width="147.61403"
       height="111.36096"
       x="-190.55911"
       y="-252.46161"
       transform="scale(-1)" />
    <rect
       style="fill:#f9f9f9;fill-opacity:1;stroke-width:0;stroke-miterlimit:4;stroke-dasharray:none"
       id="rect129"
       width="147.61403"
       height="111.36096"
       x="-190.55911"
       y="-252.46161"
       transform="scale(-1)" />
  </g>
  <path
     style="fill:#ac9393;stroke:#afafaf;stroke-width:5.36120224px;stroke-linecap:butt;stroke-linejoin:miter;stroke-opacity:1"
     d="m 156.52583,158.72608 c -0.915,74.03919 -0.915,74.03919 -0.915,74.03919"
     id="path3852"
     inkscape:connector-curvature="0" />
  <path
     style="fill:#ac9393;stroke:#afafaf;stroke-width:5.36120224px;stroke-linecap:butt;stroke-linejoin:miter;stroke-opacity:1"
     d="m 123.97368,158.30054 c -0.91502,74.03918 -0.91502,74.03918 -0.91502,74.03918"
     id="path3852-1"
     inkscape:connector-curvature="0" />
  <path
     style="fill:#ac9393;stroke:#afafaf;stroke-width:5.36120224px;stroke-linecap:butt;stroke-linejoin:miter;stroke-opacity:1"
     d="m 89.818778,158.64026 c -0.91502,74.03919 -0.91502,74.03919 -0.91502,74.03919"
     id="path3852-1-0"
     inkscape:connector-curvature="0" />
  <path
     style="fill:none;stroke:#afafaf;stroke-width:1.575207px;stroke-linecap:butt;stroke-linejoin:miter;stroke-opacity:1"
     d="m 184.09408,220.02691 c -17.25989,0 -17.31284,0 -17.31284,0 v 1.67388 h 0.15884"
     id="path3886"
     inkscape:connector-curvature="0" />
  <path
     style="fill:none;stroke:#afafaf;stroke-width:1.575207px;stroke-linecap:butt;stroke-linejoin:miter;stroke-opacity:1"
     d="m 183.78641,199.38917 c -17.2599,0 -17.31283,0 -17.31283,0 v 1.67388 h 0.15883"
     id="path3886-7"
     inkscape:connector-curvature="0" />
  <path
     style="fill:none;stroke:#afafaf;stroke-width:1.575207px;stroke-linecap:butt;stroke-linejoin:miter;stroke-opacity:1"
     d="m 183.78641,178.63906 c -17.2599,0 -17.31283,0 -17.31283,0 v 1.67387 h 0.15883"
     id="path3886-7-1"
     inkscape:connector-curvature="0" />
  <path
     style="fill:none;stroke:#afafaf;stroke-width:1.575207px;stroke-linecap:butt;stroke-linejoin:miter;stroke-opacity:1"
     d="m 148.84089,219.20194 c -17.25991,0 -17.31287,0 -17.31287,0 v 1.67388 h 0.15884"
     id="path3886-0"
     inkscape:connector-curvature="0" />
  <path
     style="fill:none;stroke:#afafaf;stroke-width:1.575207px;stroke-linecap:butt;stroke-linejoin:miter;stroke-opacity:1"
     d="m 148.53322,198.5642 c -17.25993,0 -17.31288,0 -17.31288,0 v 1.67388 h 0.15884"
     id="path3886-7-3"
     inkscape:connector-curvature="0" />
  <path
     style="fill:none;stroke:#afafaf;stroke-width:1.575207px;stroke-linecap:butt;stroke-linejoin:miter;stroke-opacity:1"
     d="m 148.53322,177.81407 c -17.25993,0 -17.31288,0 -17.31288,0 v 1.67388 h 0.15884"
     id="path3886-7-1-2"
     inkscape:connector-curvature="0" />
  <path
     style="fill:none;stroke:#afafaf;stroke-width:1.575207px;stroke-linecap:butt;stroke-linejoin:miter;stroke-opacity:1"
     d="m 116.03763,219.20194 c -17.260042,0 -17.312992,0 -17.312992,0 v 1.67388 h 0.15884"
     id="path3886-0-4"
     inkscape:connector-curvature="0" />
  <path
     style="fill:none;stroke:#afafaf;stroke-width:1.575207px;stroke-linecap:butt;stroke-linejoin:miter;stroke-opacity:1"
     d="m 115.72997,198.5642 c -17.260062,0 -17.313002,0 -17.313002,0 v 1.67388 h 0.15883"
     id="path3886-7-3-3"
     inkscape:connector-curvature="0" />
  <path
     style="fill:none;stroke:#afafaf;stroke-width:1.575207px;stroke-linecap:butt;stroke-linejoin:miter;stroke-opacity:1"
     d="m 115.72997,177.81407 c -17.260062,0 -17.313002,0 -17.313002,0 v 1.67388 h 0.15883"
     id="path3886-7-1-2-0"
     inkscape:connector-curvature="0" />
  <path
     style="fill:none;stroke:#afafaf;stroke-width:1.575207px;stroke-linecap:butt;stroke-linejoin:miter;stroke-opacity:1"
     d="m 80.528278,218.88154 c -17.260019,0 -17.312964,0 -17.312964,0 v 1.67387 h 0.158834"
     id="path3886-0-4-0"
     inkscape:connector-curvature="0" />
  <path
     style="fill:none;stroke:#afafaf;stroke-width:1.575207px;stroke-linecap:butt;stroke-linejoin:miter;stroke-opacity:1"
     d="m 80.22061,198.2438 c -17.260022,0 -17.312975,0 -17.312975,0 v 1.67388 h 0.158834"
     id="path3886-7-3-3-6"
     inkscape:connector-curvature="0" />
  <path
     style="fill:none;stroke:#afafaf;stroke-width:1.575207px;stroke-linecap:butt;stroke-linejoin:miter;stroke-opacity:1"
     d="m 80.22061,177.49367 c -17.260022,0 -17.312975,0 -17.312975,0 v 1.67389 h 0.158834"
     id="path3886-7-1-2-0-2"
     inkscape:connector-curvature="0" />
</svg>
